{"asset":{"version":"2.0","generator":"THREE.GLTFExporter"},"scenes":[{"nodes":[0],"name":"AuxScene"}],"scene":0,"nodes":[{"mesh":0}],"bufferViews":[{"buffer":0,"byteOffset":0,"byteLength":15552,"target":34962,"byteStride":12},{"buffer":0,"byteOffset":15552,"byteLength":15552,"target":34962,"byteStride":12}],"buffers":[{"byteLength":31104,"uri":"data:application/octet-stream;base64,"}],"accessors":[{"bufferView":0,"componentType":5126,"count":1296,"max":[32.57749938964844,2.4000000953674316,6.6804518699646],"min":[-3.122502088546753,0.10000000149011612,-19.069547653198242],"type":"VEC3"},{"bufferView":1,"componentType":5126,"count":1296,"max":[0.991058349609375,1,0.5773507356643677],"min":[-0.577347993850708,0.12388671189546585,-0.8426993489265442],"type":"VEC3"}],"materials":[{"pbrMetallicRoughness":{"baseColorFactor":[0.5019607843137255,0.5019607843137255,0.5019607843137255,1],"metallicFactor":0,"roughnessFactor":1}}],"meshes":[{"primitives":[{"mode":4,"attributes":{"POSITION":0,"NORMAL":1},"material":0}]}]}